<svg width="48" height="36" viewBox="0 0 48 36" fill="none" xmlns="http://www.w3.org/2000/svg">
<g id="list">
<path d="M13 0H47.5V10H13V0Z" fill="white"/>
<path d="M13 13H28.25H47.5V23H13V13Z" fill="white"/>
<path d="M13 26H47.5V36H13V26Z" fill="white"/>
<path d="M10 5C10 7.76142 7.76142 10 5 10C2.23858 10 0 7.76142 0 5C0 2.23858 2.23858 0 5 0C7.76142 0 10 2.23858 10 5Z" fill="white"/>
<path d="M10 18C10 20.7614 7.76142 23 5 23C2.23858 23 0 20.7614 0 18C0 15.2386 2.23858 13 5 13C7.76142 13 10 15.2386 10 18Z" fill="white"/>
<path d="M10 31C10 33.7614 7.76142 36 5 36C2.23858 36 0 33.7614 0 31C0 28.2386 2.23858 26 5 26C7.76142 26 10 28.2386 10 31Z" fill="white"/>
</g>
</svg>
